<svg width="60" height="62" viewBox="0 0 60 62" fill="none" xmlns="http://www.w3.org/2000/svg">
<path d="M56.264 28.628V29.672H58.904V31.676H56.264V32.876H59.264V35H53.6V26.504H59.264V28.628H56.264Z" fill="white"/>
<path d="M30.3119 61.084C29.2959 61.084 28.4559 60.848 27.7919 60.376C27.1359 59.896 26.7799 59.196 26.7239 58.276H29.5559C29.5959 58.764 29.8119 59.008 30.2039 59.008C30.3479 59.008 30.4679 58.976 30.5639 58.912C30.6679 58.84 30.7199 58.732 30.7199 58.588C30.7199 58.388 30.6119 58.228 30.3959 58.108C30.1799 57.98 29.8439 57.836 29.3879 57.676C28.8439 57.484 28.3919 57.296 28.0319 57.112C27.6799 56.928 27.3759 56.66 27.1199 56.308C26.8639 55.956 26.7399 55.504 26.7479 54.952C26.7479 54.4 26.8879 53.932 27.1679 53.548C27.4559 53.156 27.8439 52.86 28.3319 52.66C28.8279 52.46 29.3839 52.36 29.9999 52.36C31.0399 52.36 31.8639 52.6 32.4719 53.08C33.0879 53.56 33.4119 54.236 33.4439 55.108H30.5759C30.5679 54.868 30.5079 54.696 30.3959 54.592C30.2839 54.488 30.1479 54.436 29.9879 54.436C29.8759 54.436 29.7839 54.476 29.7119 54.556C29.6399 54.628 29.6039 54.732 29.6039 54.868C29.6039 55.06 29.7079 55.22 29.9159 55.348C30.1319 55.468 30.4719 55.616 30.9359 55.792C31.4719 55.992 31.9119 56.184 32.2559 56.368C32.6079 56.552 32.9119 56.808 33.1679 57.136C33.4239 57.464 33.5519 57.876 33.5519 58.372C33.5519 58.892 33.4239 59.36 33.1679 59.776C32.9119 60.184 32.5399 60.504 32.0519 60.736C31.5639 60.968 30.9839 61.084 30.3119 61.084Z" fill="white"/>
<path d="M4.73999 35.084C3.93999 35.084 3.20399 34.896 2.53199 34.52C1.86799 34.144 1.33999 33.624 0.947985 32.96C0.555985 32.296 0.359985 31.548 0.359985 30.716C0.359985 29.884 0.555985 29.136 0.947985 28.472C1.33999 27.808 1.86799 27.292 2.53199 26.924C3.20399 26.548 3.93999 26.36 4.73999 26.36C5.53999 26.36 6.27199 26.548 6.93599 26.924C7.59999 27.292 8.12399 27.808 8.50799 28.472C8.89999 29.136 9.09599 29.884 9.09599 30.716C9.09599 31.548 8.89999 32.296 8.50799 32.96C8.12399 33.624 7.59599 34.144 6.92399 34.52C6.25999 34.896 5.53199 35.084 4.73999 35.084ZM4.73999 32.6C5.26799 32.6 5.67599 32.432 5.96399 32.096C6.25199 31.752 6.39599 31.292 6.39599 30.716C6.39599 30.132 6.25199 29.672 5.96399 29.336C5.67599 28.992 5.26799 28.82 4.73999 28.82C4.20399 28.82 3.79199 28.992 3.50399 29.336C3.21599 29.672 3.07199 30.132 3.07199 30.716C3.07199 31.292 3.21599 31.752 3.50399 32.096C3.79199 32.432 4.20399 32.6 4.73999 32.6Z" fill="white"/>
<path d="M34.2446 9.00003H31.5806L28.7606 4.72803V9.00003H26.0966V0.504028H28.7606L31.5806 4.84803V0.504028H34.2446V9.00003Z" fill="white"/>
</svg>
