<svg width="170" height="150" viewBox="0 0 170 150" fill="none" xmlns="http://www.w3.org/2000/svg">
<rect x="4.7843" y="54" width="88.8531" height="15.2614" rx="3.69743" fill="url(#paint0_linear_41_83)"/>
<rect x="23.922" y="67.3536" width="88.8531" height="16.2153" rx="3.69743" fill="url(#paint1_linear_41_83)"/>
<rect y="80.7074" width="88.8531" height="16.2153" rx="3.69743" fill="url(#paint2_linear_41_83)"/>
<rect x="61.3929" width="88.8531" height="15.2614" rx="3.69743" fill="url(#paint3_linear_41_83)"/>
<rect x="80.5304" y="13.3535" width="88.8531" height="16.2153" rx="3.69743" fill="url(#paint4_linear_41_83)"/>
<rect x="56.6084" y="26.7074" width="88.8531" height="16.2153" rx="3.69743" fill="url(#paint5_linear_41_83)"/>
<rect x="59.4086" y="107.077" width="88.8531" height="15.2614" rx="3.69743" fill="url(#paint6_linear_41_83)"/>
<rect x="78.5461" y="120.431" width="88.8531" height="16.2153" rx="3.69743" fill="url(#paint7_linear_41_83)"/>
<rect x="54.6243" y="133.785" width="88.8531" height="16.2153" rx="3.69743" fill="url(#paint8_linear_41_83)"/>
<defs>
<linearGradient id="paint0_linear_41_83" x1="4.7843" y1="61.6307" x2="93.6374" y2="61.6307" gradientUnits="userSpaceOnUse">
<stop stop-color="#A2B0BD"/>
<stop offset="1" stop-color="#4B5157"/>
</linearGradient>
<linearGradient id="paint1_linear_41_83" x1="23.922" y1="75.4613" x2="112.775" y2="75.4613" gradientUnits="userSpaceOnUse">
<stop stop-color="#A2B0BD"/>
<stop offset="1" stop-color="#4B5157"/>
</linearGradient>
<linearGradient id="paint2_linear_41_83" x1="0" y1="88.815" x2="88.8531" y2="88.815" gradientUnits="userSpaceOnUse">
<stop stop-color="#A2B0BD"/>
<stop offset="1" stop-color="#4B5157"/>
</linearGradient>
<linearGradient id="paint3_linear_41_83" x1="61.3929" y1="7.63071" x2="150.246" y2="7.63071" gradientUnits="userSpaceOnUse">
<stop stop-color="#A2B0BD"/>
<stop offset="1" stop-color="#4B5157"/>
</linearGradient>
<linearGradient id="paint4_linear_41_83" x1="80.5304" y1="21.4612" x2="169.383" y2="21.4612" gradientUnits="userSpaceOnUse">
<stop stop-color="#A2B0BD"/>
<stop offset="1" stop-color="#4B5157"/>
</linearGradient>
<linearGradient id="paint5_linear_41_83" x1="56.6084" y1="34.815" x2="145.461" y2="34.815" gradientUnits="userSpaceOnUse">
<stop stop-color="#A2B0BD"/>
<stop offset="1" stop-color="#4B5157"/>
</linearGradient>
<linearGradient id="paint6_linear_41_83" x1="59.4086" y1="114.708" x2="148.262" y2="114.708" gradientUnits="userSpaceOnUse">
<stop stop-color="#A2B0BD"/>
<stop offset="1" stop-color="#4B5157"/>
</linearGradient>
<linearGradient id="paint7_linear_41_83" x1="78.5461" y1="128.539" x2="167.399" y2="128.539" gradientUnits="userSpaceOnUse">
<stop stop-color="#A2B0BD"/>
<stop offset="1" stop-color="#4B5157"/>
</linearGradient>
<linearGradient id="paint8_linear_41_83" x1="54.6243" y1="141.892" x2="143.477" y2="141.892" gradientUnits="userSpaceOnUse">
<stop stop-color="#A2B0BD"/>
<stop offset="1" stop-color="#4B5157"/>
</linearGradient>
</defs>
</svg>
