<svg width="168" height="150" viewBox="0 0 168 150" fill="none" xmlns="http://www.w3.org/2000/svg">
<circle cx="66.0862" cy="71.0042" r="46.4139" fill="url(#paint0_linear_30_143)"/>
<ellipse cx="66.0862" cy="130.943" rx="3.9959" ry="8.60656" fill="url(#paint1_linear_30_143)"/>
<ellipse cx="66.0862" cy="8.60656" rx="3.9959" ry="8.60656" fill="url(#paint2_linear_30_143)"/>
<ellipse cx="123.873" cy="71.3116" rx="3.9959" ry="8.60656" transform="rotate(90 123.873 71.3116)" fill="url(#paint3_linear_30_143)"/>
<ellipse cx="8.6067" cy="71.6188" rx="3.9959" ry="8.60656" transform="rotate(90 8.6067 71.6188)" fill="url(#paint4_linear_30_143)"/>
<ellipse cx="23.2536" cy="19.7316" rx="3.9959" ry="8.60656" transform="rotate(131.058 23.2536 19.7316)" fill="url(#paint5_linear_30_143)"/>
<ellipse cx="108.705" cy="118.092" rx="3.9959" ry="8.60656" transform="rotate(131.058 108.705 118.092)" fill="url(#paint6_linear_30_143)"/>
<ellipse cx="108.626" cy="22.2961" rx="3.9959" ry="8.60656" transform="rotate(47.3267 108.626 22.2961)" fill="url(#paint7_linear_30_143)"/>
<ellipse cx="20.7167" cy="117.583" rx="3.9959" ry="8.60656" transform="rotate(47.3267 20.7167 117.583)" fill="url(#paint8_linear_30_143)"/>
<path fill-rule="evenodd" clip-rule="evenodd" d="M85.7584 140.779C88.6987 140.779 91.5229 140.239 94.1514 139.247C97.5327 145.668 103.933 150 111.271 150C122.135 150 130.943 140.504 130.943 128.791C130.943 117.078 122.135 107.582 111.271 107.582C111.101 107.582 110.931 107.584 110.762 107.589C108.4 94.9583 98.1032 85.4508 85.7584 85.4508C73.3679 85.4508 63.0405 95.0286 60.7293 107.729C59.966 107.632 59.1893 107.582 58.4017 107.582C47.5371 107.582 38.7296 117.078 38.7296 128.791C38.7296 140.504 47.5371 150 58.4017 150C65.9795 150 72.5566 145.381 75.8425 138.611C78.8908 140.007 82.2415 140.779 85.7584 140.779Z" fill="url(#paint9_linear_30_143)"/>
<path fill-rule="evenodd" clip-rule="evenodd" d="M137.896 114.308C140.883 116.281 144.396 117.418 148.156 117.418C159.021 117.418 167.828 107.922 167.828 96.209C167.828 84.4956 159.021 75 148.156 75C147.986 75 147.816 75.0024 147.647 75.007C145.286 62.3764 134.989 52.8689 122.644 52.8689C110.253 52.8689 99.9257 62.4467 97.6145 75.1469C96.8512 75.0499 96.0745 75 95.287 75C84.4224 75 75.6149 84.4956 75.6149 96.209C75.6149 107.922 84.4224 117.418 95.287 117.418C101.27 117.418 106.63 114.538 110.238 109.994C114.127 114.916 119.895 118.033 126.332 118.033C130.598 118.033 134.57 116.664 137.896 114.308Z" fill="url(#paint10_linear_30_143)"/>
<defs>
<linearGradient id="paint0_linear_30_143" x1="66.0862" y1="24.5902" x2="66.0862" y2="117.418" gradientUnits="userSpaceOnUse">
<stop stop-color="#FB8E74"/>
<stop offset="1" stop-color="#FE9C4F"/>
</linearGradient>
<linearGradient id="paint1_linear_30_143" x1="66.0862" y1="122.336" x2="66.0862" y2="139.549" gradientUnits="userSpaceOnUse">
<stop stop-color="#FB8E74"/>
<stop offset="1" stop-color="#FE9C4F"/>
</linearGradient>
<linearGradient id="paint2_linear_30_143" x1="66.0862" y1="0" x2="66.0862" y2="17.2131" gradientUnits="userSpaceOnUse">
<stop stop-color="#FB8E74"/>
<stop offset="1" stop-color="#FE9C4F"/>
</linearGradient>
<linearGradient id="paint3_linear_30_143" x1="123.873" y1="62.705" x2="123.873" y2="79.9181" gradientUnits="userSpaceOnUse">
<stop stop-color="#FB8E74"/>
<stop offset="1" stop-color="#FE9C4F"/>
</linearGradient>
<linearGradient id="paint4_linear_30_143" x1="8.6067" y1="63.0123" x2="8.6067" y2="80.2254" gradientUnits="userSpaceOnUse">
<stop stop-color="#FB8E74"/>
<stop offset="1" stop-color="#FE9C4F"/>
</linearGradient>
<linearGradient id="paint5_linear_30_143" x1="23.2536" y1="11.1251" x2="23.2536" y2="28.3382" gradientUnits="userSpaceOnUse">
<stop stop-color="#FB8E74"/>
<stop offset="1" stop-color="#FE9C4F"/>
</linearGradient>
<linearGradient id="paint6_linear_30_143" x1="108.705" y1="109.486" x2="108.705" y2="126.699" gradientUnits="userSpaceOnUse">
<stop stop-color="#FB8E74"/>
<stop offset="1" stop-color="#FE9C4F"/>
</linearGradient>
<linearGradient id="paint7_linear_30_143" x1="108.626" y1="13.6896" x2="108.626" y2="30.9027" gradientUnits="userSpaceOnUse">
<stop stop-color="#FB8E74"/>
<stop offset="1" stop-color="#FE9C4F"/>
</linearGradient>
<linearGradient id="paint8_linear_30_143" x1="20.7167" y1="108.976" x2="20.7167" y2="126.19" gradientUnits="userSpaceOnUse">
<stop stop-color="#FB8E74"/>
<stop offset="1" stop-color="#FE9C4F"/>
</linearGradient>
<linearGradient id="paint9_linear_30_143" x1="84.8362" y1="85.4508" x2="84.8362" y2="150" gradientUnits="userSpaceOnUse">
<stop stop-color="#96A3AE"/>
<stop offset="1" stop-color="#D3EAFE"/>
</linearGradient>
<linearGradient id="paint10_linear_30_143" x1="121.721" y1="52.8689" x2="121.721" y2="126.025" gradientUnits="userSpaceOnUse">
<stop stop-color="#9FADBA"/>
<stop offset="1" stop-color="#D4E6F4"/>
</linearGradient>
</defs>
</svg>
