<svg width="185" height="148" viewBox="0 0 185 148" fill="none" xmlns="http://www.w3.org/2000/svg">
<path fill-rule="evenodd" clip-rule="evenodd" d="M134.085 141.68C139.078 144.976 144.949 146.877 151.233 146.877C169.39 146.877 184.11 131.007 184.11 111.431C184.11 91.8555 169.39 75.9862 151.233 75.9862C150.948 75.9862 150.665 75.9901 150.382 75.9978C146.436 54.8892 129.227 39 108.596 39C87.8887 39 70.6292 55.0066 66.7666 76.2317C65.4909 76.0696 64.1928 75.9862 62.8767 75.9862C44.7194 75.9862 30 91.8555 30 111.431C30 131.007 44.7194 146.877 62.8767 146.877C72.8761 146.877 81.8329 142.064 87.8628 134.469C94.3633 142.694 104.002 147.904 114.76 147.904C121.889 147.904 128.527 145.616 134.085 141.68Z" fill="url(#paint0_linear_30_142)"/>
<path fill-rule="evenodd" clip-rule="evenodd" d="M104.085 102.68C109.078 105.976 114.95 107.877 121.233 107.877C139.39 107.877 154.11 92.0074 154.11 72.4315C154.11 52.8557 139.39 36.9863 121.233 36.9863C120.949 36.9863 120.665 36.9902 120.382 36.998C116.436 15.8893 99.2272 0 78.596 0C57.8887 0 40.6291 16.0067 36.7666 37.2318C35.4909 37.0697 34.1928 36.9863 32.8767 36.9863C14.7194 36.9863 0 52.8557 0 72.4315C0 92.0074 14.7194 107.877 32.8767 107.877C42.8762 107.877 51.833 103.064 57.8629 95.4694C64.3634 103.694 74.0021 108.904 84.7603 108.904C91.8894 108.904 98.5269 106.616 104.085 102.68Z" fill="url(#paint1_linear_30_142)"/>
<defs>
<linearGradient id="paint0_linear_30_142" x1="107.055" y1="39" x2="107.055" y2="161.26" gradientUnits="userSpaceOnUse">
<stop stop-color="#9FADBA"/>
<stop offset="1" stop-color="#D4E6F4"/>
</linearGradient>
<linearGradient id="paint1_linear_30_142" x1="77.0549" y1="0" x2="77.0549" y2="122.26" gradientUnits="userSpaceOnUse">
<stop stop-color="#9FADBA"/>
<stop offset="1" stop-color="#D4E6F4"/>
</linearGradient>
</defs>
</svg>
