<svg width="153" height="150" viewBox="0 0 153 150" fill="none" xmlns="http://www.w3.org/2000/svg">
<path fill-rule="evenodd" clip-rule="evenodd" d="M115.679 106.285C119.37 108.722 123.71 110.127 128.355 110.127C141.778 110.127 152.659 98.3957 152.659 83.9244C152.659 69.453 141.778 57.7217 128.355 57.7217C128.145 57.7217 127.935 57.7246 127.726 57.7303C124.809 42.1259 112.088 30.3799 96.836 30.3799C81.5283 30.3799 68.7693 42.2127 65.9139 57.9032C64.9708 57.7834 64.0112 57.7217 63.0383 57.7217C49.6156 57.7217 38.7344 69.453 38.7344 83.9244C38.7344 98.3957 49.6156 110.127 63.0383 110.127C70.4303 110.127 77.0516 106.569 81.5091 100.955C86.3146 107.035 93.4401 110.887 101.393 110.887C106.663 110.887 111.57 109.196 115.679 106.285Z" fill="url(#paint0_linear_30_162)"/>
<path d="M82.637 103.676L81.3869 64.9396L95.3819 60.8873L95.4358 88.3062L112.448 83.3256L99.7027 126.114L97.6316 96.2677L82.637 103.676Z" fill="url(#paint1_linear_30_162)"/>
<path fill-rule="evenodd" clip-rule="evenodd" d="M76.9446 75.9053C80.6353 78.3424 84.9759 79.7473 89.6209 79.7473C103.044 79.7473 113.925 68.016 113.925 53.5446C113.925 39.0733 103.044 27.3419 89.6209 27.3419C89.4106 27.3419 89.201 27.3448 88.9919 27.3506C86.0746 11.746 73.3532 0 58.1017 0C42.7939 0 30.0349 11.8329 27.1795 27.5234C26.2364 27.4036 25.2769 27.3419 24.3039 27.3419C10.8812 27.3419 0 39.0733 0 53.5446C0 68.016 10.8812 79.7473 24.3039 79.7473C31.696 79.7473 38.3172 76.1894 42.7748 70.5752C47.5803 76.6555 54.7057 80.5067 62.6586 80.5067C67.9287 80.5067 72.8355 78.8156 76.9446 75.9053Z" fill="url(#paint2_linear_30_162)"/>
<path d="M59.5836 122.036C61.4216 124.53 65.0046 133.458 59.5836 133.458C53.9127 133.458 56.6698 125.581 59.5836 122.036Z" fill="#01477D"/>
<path d="M91.0924 133.852C92.9304 136.346 96.5133 145.274 91.0924 145.274C85.4215 145.274 88.1786 137.397 91.0924 133.852Z" fill="#01477D"/>
<path d="M69.0362 138.578C70.8742 141.073 74.4572 150 69.0362 150C63.3653 150 66.1224 142.123 69.0362 138.578Z" fill="#01477D"/>
<path d="M38.3153 123.611C40.1533 126.106 43.7362 135.033 38.3153 135.033C32.6444 135.033 35.4015 127.156 38.3153 123.611Z" fill="#01477D"/>
<path d="M80.8521 123.611C82.6902 126.106 86.2731 135.033 80.8521 135.033C75.1812 135.033 77.9383 127.156 80.8521 123.611Z" fill="#01477D"/>
<defs>
<linearGradient id="paint0_linear_30_162" x1="95.6967" y1="30.3799" x2="95.6967" y2="120.76" gradientUnits="userSpaceOnUse">
<stop stop-color="#9FADBA"/>
<stop offset="1" stop-color="#D4E6F4"/>
</linearGradient>
<linearGradient id="paint1_linear_30_162" x1="100.416" y1="62.3867" x2="82.9228" y2="121.116" gradientUnits="userSpaceOnUse">
<stop stop-color="#E19B1A"/>
<stop offset="1" stop-color="#FADC93"/>
</linearGradient>
<linearGradient id="paint2_linear_30_162" x1="56.9623" y1="0" x2="56.9623" y2="90.3802" gradientUnits="userSpaceOnUse">
<stop stop-color="#9FADBA"/>
<stop offset="1" stop-color="#D4E6F4"/>
</linearGradient>
</defs>
</svg>
