<svg width="148" height="150" viewBox="0 0 148 150" fill="none" xmlns="http://www.w3.org/2000/svg">
<path fill-rule="evenodd" clip-rule="evenodd" d="M99.6488 98.303C104.428 101.459 110.05 103.279 116.065 103.279C133.449 103.279 147.541 88.0857 147.541 69.3442C147.541 50.6027 133.449 35.4098 116.065 35.4098C115.793 35.4098 115.522 35.4135 115.251 35.4209C111.473 15.212 94.9977 0 75.2459 0C55.4212 0 38.8973 15.3244 35.1994 35.6448C33.9781 35.4896 32.7354 35.4098 31.4754 35.4098C14.092 35.4098 0 50.6027 0 69.3442C0 88.0857 14.092 103.279 31.4754 103.279C41.0486 103.279 49.6236 98.6709 55.3965 91.4003C61.6199 99.2746 70.8478 104.262 81.1475 104.262C87.9727 104.262 94.3272 102.072 99.6488 98.303Z" fill="url(#paint0_linear_30_115)"/>
<path d="M55.266 106.229C57.5611 109.344 62.0351 120.492 55.266 120.492C48.1849 120.492 51.6276 110.656 55.266 106.229Z" fill="#01477D"/>
<path d="M94.6104 120.984C96.9054 124.098 101.379 135.246 94.6104 135.246C87.5292 135.246 90.972 125.41 94.6104 120.984Z" fill="#01477D"/>
<path d="M38.5448 133.771C40.8399 136.885 45.3139 148.033 38.5448 148.033C31.4637 148.033 34.9064 138.197 38.5448 133.771Z" fill="#01477D"/>
<path d="M114.283 108.197C116.578 111.312 121.052 122.459 114.283 122.459C107.201 122.459 110.644 112.623 114.283 108.197Z" fill="#01477D"/>
<path d="M67.0694 126.885C69.3644 130 73.8384 141.148 67.0694 141.148C59.9882 141.148 63.431 131.311 67.0694 126.885Z" fill="#01477D"/>
<path d="M105.43 135.738C107.725 138.852 112.199 150 105.43 150C98.3489 150 101.792 140.164 105.43 135.738Z" fill="#01477D"/>
<path d="M28.7088 108.197C31.0038 111.312 35.4778 122.459 28.7088 122.459C21.6276 122.459 25.0704 112.623 28.7088 108.197Z" fill="#01477D"/>
<path d="M81.8236 108.197C84.1187 111.312 88.5927 122.459 81.8236 122.459C74.7425 122.459 78.1852 112.623 81.8236 108.197Z" fill="#01477D"/>
<defs>
<linearGradient id="paint0_linear_30_115" x1="73.7705" y1="0" x2="73.7705" y2="117.049" gradientUnits="userSpaceOnUse">
<stop stop-color="#9FADBA"/>
<stop offset="1" stop-color="#D4E6F4"/>
</linearGradient>
</defs>
</svg>
